<svg width="231" height="44" viewBox="0 0 231 44" fill="none" xmlns="http://www.w3.org/2000/svg">
<path d="M1.89631 37V15.1818H10.5043C12.152 15.1818 13.5582 15.4766 14.723 16.0661C15.8949 16.6484 16.7862 17.4759 17.397 18.5483C18.0149 19.6136 18.3239 20.8672 18.3239 22.3089C18.3239 23.7578 18.0114 25.0043 17.3864 26.0483C16.7614 27.0852 15.8558 27.8807 14.6697 28.4347C13.4908 28.9886 12.0632 29.2656 10.3871 29.2656H4.62358V25.5582H9.64134C10.522 25.5582 11.2536 25.4375 11.8359 25.196C12.4183 24.9545 12.8516 24.5923 13.1357 24.1094C13.4268 23.6264 13.5724 23.0263 13.5724 22.3089C13.5724 21.5845 13.4268 20.9737 13.1357 20.4766C12.8516 19.9794 12.4148 19.603 11.8253 19.3473C11.2429 19.0845 10.5078 18.9531 9.62003 18.9531H6.50923V37H1.89631ZM13.679 27.071L19.1016 37H14.0092L8.70384 27.071H13.679ZM21.5838 37V15.1818H36.2855V18.9851H26.1967V24.1839H35.5291V27.9872H26.1967V33.1967H36.3281V37H21.5838ZM58.2022 15.1818V37H54.2179L44.7257 23.2678H44.5659V37H39.9529V15.1818H44.0012L53.4189 28.9034H53.6106V15.1818H58.2022ZM61.1825 18.9851V15.1818H79.1016V18.9851H72.4219V37H67.8622V18.9851H61.1825Z" fill="black"/>
<path d="M124.896 37V15.1818H139.342V18.9851H129.509V24.1839H138.384V27.9872H129.509V37H124.896ZM147.058 15.1818V37H142.445V15.1818H147.058ZM169.103 15.1818V37H165.118L155.626 23.2678H155.466V37H150.853V15.1818H154.902L164.319 28.9034H164.511V15.1818H169.103ZM180.648 37H172.914V15.1818H180.712C182.907 15.1818 184.796 15.6186 186.38 16.4922C187.964 17.3587 189.182 18.6051 190.034 20.2315C190.893 21.858 191.323 23.804 191.323 26.0696C191.323 28.3423 190.893 30.2955 190.034 31.929C189.182 33.5625 187.956 34.8161 186.358 35.6896C184.768 36.5632 182.864 37 180.648 37ZM177.527 33.0476H180.456C181.82 33.0476 182.967 32.8061 183.898 32.3232C184.835 31.8331 185.538 31.0767 186.007 30.054C186.483 29.0241 186.721 27.696 186.721 26.0696C186.721 24.4574 186.483 23.1399 186.007 22.1172C185.538 21.0945 184.839 20.3416 183.908 19.8587C182.978 19.3757 181.831 19.1342 180.467 19.1342H177.527V33.0476ZM194.74 37V15.1818H209.442V18.9851H199.353V24.1839H208.685V27.9872H199.353V33.1967H209.484V37H194.74ZM213.109 37V15.1818H221.717C223.365 15.1818 224.771 15.4766 225.936 16.0661C227.108 16.6484 227.999 17.4759 228.61 18.5483C229.228 19.6136 229.537 20.8672 229.537 22.3089C229.537 23.7578 229.224 25.0043 228.599 26.0483C227.974 27.0852 227.069 27.8807 225.883 28.4347C224.704 28.9886 223.276 29.2656 221.6 29.2656H215.836V25.5582H220.854C221.735 25.5582 222.466 25.4375 223.049 25.196C223.631 24.9545 224.064 24.5923 224.349 24.1094C224.64 23.6264 224.785 23.0263 224.785 22.3089C224.785 21.5845 224.64 20.9737 224.349 20.4766C224.064 19.9794 223.628 19.603 223.038 19.3473C222.456 19.0845 221.721 18.9531 220.833 18.9531H217.722V37H213.109ZM224.892 27.071L230.314 37H225.222L219.917 27.071H224.892Z" fill="black"/>
<g clip-path="url(#clip0_2_29)">
<path d="M95.2975 9.97501L82.75 18.34V36.75H91.5V22.75H98.5V36.75H107.25V17.9375L95.2975 9.97501Z" fill="black"/>
<path d="M98.5 5.25V7.8925L102 10.22L105.027 12.25H107.25V13.7375L110.75 16.0825V19.25H114.25V22.75H110.75V26.25H114.25V29.75H110.75V36.75H121.25V5.25H98.5ZM114.25 15.75H110.75V12.25H114.25V15.75Z" fill="black"/>
</g>
<defs>
<clipPath id="clip0_2_29">
<rect width="42" height="42" fill="white" transform="translate(81)"/>
</clipPath>
</defs>
</svg>
