<svg width="250" height="250" viewBox="0 0 250 250" fill="none" xmlns="http://www.w3.org/2000/svg">
<rect width="250" height="250" fill="white"/>
<path d="M103.896 124V102.182H112.504C114.152 102.182 115.558 102.477 116.723 103.066C117.895 103.648 118.786 104.476 119.397 105.548C120.015 106.614 120.324 107.867 120.324 109.309C120.324 110.758 120.011 112.004 119.386 113.048C118.761 114.085 117.856 114.881 116.67 115.435C115.491 115.989 114.063 116.266 112.387 116.266H106.624V112.558H111.641C112.522 112.558 113.254 112.437 113.836 112.196C114.418 111.955 114.852 111.592 115.136 111.109C115.427 110.626 115.572 110.026 115.572 109.309C115.572 108.585 115.427 107.974 115.136 107.477C114.852 106.979 114.415 106.603 113.825 106.347C113.243 106.085 112.508 105.953 111.62 105.953H108.509V124H103.896ZM115.679 114.071L121.102 124H116.009L110.704 114.071H115.679ZM123.584 124V102.182H138.286V105.985H128.197V111.184H137.529V114.987H128.197V120.197H138.328V124H123.584ZM160.202 102.182V124H156.218L146.726 110.268H146.566V124H141.953V102.182H146.001L155.419 115.903H155.611V102.182H160.202ZM163.183 105.985V102.182H181.102V105.985H174.422V124H169.862V105.985H163.183Z" fill="black"/>
<path d="M103.896 149V127.182H118.342V130.985H108.509V136.184H117.384V139.987H108.509V149H103.896ZM126.058 127.182V149H121.445V127.182H126.058ZM148.103 127.182V149H144.118L134.626 135.268H134.466V149H129.853V127.182H133.902L143.319 140.903H143.511V127.182H148.103ZM159.648 149H151.914V127.182H159.712C161.907 127.182 163.796 127.619 165.38 128.492C166.964 129.359 168.182 130.605 169.034 132.232C169.893 133.858 170.323 135.804 170.323 138.07C170.323 140.342 169.893 142.295 169.034 143.929C168.182 145.562 166.956 146.816 165.358 147.69C163.768 148.563 161.864 149 159.648 149ZM156.527 145.048H159.456C160.82 145.048 161.967 144.806 162.898 144.323C163.835 143.833 164.538 143.077 165.007 142.054C165.483 141.024 165.721 139.696 165.721 138.07C165.721 136.457 165.483 135.14 165.007 134.117C164.538 133.094 163.839 132.342 162.908 131.859C161.978 131.376 160.831 131.134 159.467 131.134H156.527V145.048ZM173.74 149V127.182H188.442V130.985H178.353V136.184H187.685V139.987H178.353V145.197H188.484V149H173.74ZM192.109 149V127.182H200.717C202.365 127.182 203.771 127.477 204.936 128.066C206.108 128.648 206.999 129.476 207.61 130.548C208.228 131.614 208.537 132.867 208.537 134.309C208.537 135.758 208.224 137.004 207.599 138.048C206.974 139.085 206.069 139.881 204.883 140.435C203.704 140.989 202.276 141.266 200.6 141.266H194.836V137.558H199.854C200.735 137.558 201.466 137.437 202.049 137.196C202.631 136.955 203.064 136.592 203.349 136.109C203.64 135.626 203.785 135.026 203.785 134.309C203.785 133.585 203.64 132.974 203.349 132.477C203.064 131.979 202.628 131.603 202.038 131.347C201.456 131.085 200.721 130.953 199.833 130.953H196.722V149H192.109ZM203.892 139.071L209.314 149H204.222L198.917 139.071H203.892Z" fill="black"/>
<g clip-path="url(#clip0_3_37)">
<path d="M60.4463 108.962L41.625 121.51V149.125H54.75V128.125H65.25V149.125H78.375V120.906L60.4463 108.962Z" fill="black"/>
<path d="M65.25 101.875V105.839L70.5 109.33L75.0412 112.375H78.375V114.606L83.625 118.124V122.875H88.875V128.125H83.625V133.375H88.875V138.625H83.625V149.125H99.375V101.875H65.25ZM88.875 117.625H83.625V112.375H88.875V117.625Z" fill="black"/>
</g>
<defs>
<clipPath id="clip0_3_37">
<rect width="63" height="63" fill="white" transform="translate(39 94)"/>
</clipPath>
</defs>
</svg>
