<svg width="250" height="70" viewBox="0 0 250 70" fill="none" xmlns="http://www.w3.org/2000/svg">
<rect width="250" height="70" fill="white"/>
<path d="M103.896 33V11.1818H112.504C114.152 11.1818 115.558 11.4766 116.723 12.0661C117.895 12.6484 118.786 13.4759 119.397 14.5483C120.015 15.6136 120.324 16.8672 120.324 18.3089C120.324 19.7578 120.011 21.0043 119.386 22.0483C118.761 23.0852 117.856 23.8807 116.67 24.4347C115.491 24.9886 114.063 25.2656 112.387 25.2656H106.624V21.5582H111.641C112.522 21.5582 113.254 21.4375 113.836 21.196C114.418 20.9545 114.852 20.5923 115.136 20.1094C115.427 19.6264 115.572 19.0263 115.572 18.3089C115.572 17.5845 115.427 16.9737 115.136 16.4766C114.852 15.9794 114.415 15.603 113.825 15.3473C113.243 15.0845 112.508 14.9531 111.62 14.9531H108.509V33H103.896ZM115.679 23.071L121.102 33H116.009L110.704 23.071H115.679ZM123.584 33V11.1818H138.286V14.9851H128.197V20.1839H137.529V23.9872H128.197V29.1967H138.328V33H123.584ZM160.202 11.1818V33H156.218L146.726 19.2678H146.566V33H141.953V11.1818H146.001L155.419 24.9034H155.611V11.1818H160.202ZM163.183 14.9851V11.1818H181.102V14.9851H174.422V33H169.862V14.9851H163.183Z" fill="black"/>
<path d="M103.896 58V36.1818H118.342V39.9851H108.509V45.1839H117.384V48.9872H108.509V58H103.896ZM126.058 36.1818V58H121.445V36.1818H126.058ZM148.103 36.1818V58H144.118L134.626 44.2678H134.466V58H129.853V36.1818H133.902L143.319 49.9034H143.511V36.1818H148.103ZM159.648 58H151.914V36.1818H159.712C161.907 36.1818 163.796 36.6186 165.38 37.4922C166.964 38.3587 168.182 39.6051 169.034 41.2315C169.893 42.858 170.323 44.804 170.323 47.0696C170.323 49.3423 169.893 51.2955 169.034 52.929C168.182 54.5625 166.956 55.8161 165.358 56.6896C163.768 57.5632 161.864 58 159.648 58ZM156.527 54.0476H159.456C160.82 54.0476 161.967 53.8061 162.898 53.3232C163.835 52.8331 164.538 52.0767 165.007 51.054C165.483 50.0241 165.721 48.696 165.721 47.0696C165.721 45.4574 165.483 44.1399 165.007 43.1172C164.538 42.0945 163.839 41.3416 162.908 40.8587C161.978 40.3757 160.831 40.1342 159.467 40.1342H156.527V54.0476ZM173.74 58V36.1818H188.442V39.9851H178.353V45.1839H187.685V48.9872H178.353V54.1967H188.484V58H173.74ZM192.109 58V36.1818H200.717C202.365 36.1818 203.771 36.4766 204.936 37.0661C206.108 37.6484 206.999 38.4759 207.61 39.5483C208.228 40.6136 208.537 41.8672 208.537 43.3089C208.537 44.7578 208.224 46.0043 207.599 47.0483C206.974 48.0852 206.069 48.8807 204.883 49.4347C203.704 49.9886 202.276 50.2656 200.6 50.2656H194.836V46.5582H199.854C200.735 46.5582 201.466 46.4375 202.049 46.196C202.631 45.9545 203.064 45.5923 203.349 45.1094C203.64 44.6264 203.785 44.0263 203.785 43.3089C203.785 42.5845 203.64 41.9737 203.349 41.4766C203.064 40.9794 202.628 40.603 202.038 40.3473C201.456 40.0845 200.721 39.9531 199.833 39.9531H196.722V58H192.109ZM203.892 48.071L209.314 58H204.222L198.917 48.071H203.892Z" fill="black"/>
<g clip-path="url(#clip0_34_2)">
<path d="M60.4463 17.9625L41.625 30.51V58.125H54.75V37.125H65.25V58.125H78.375V29.9063L60.4463 17.9625Z" fill="black"/>
<path d="M65.25 10.875V14.8388L70.5 18.33L75.0412 21.375H78.375V23.6062L83.625 27.1237V31.875H88.875V37.125H83.625V42.375H88.875V47.625H83.625V58.125H99.375V10.875H65.25ZM88.875 26.625H83.625V21.375H88.875V26.625Z" fill="black"/>
</g>
<defs>
<clipPath id="clip0_34_2">
<rect width="63" height="63" fill="white" transform="translate(39 3)"/>
</clipPath>
</defs>
</svg>
